<svg data-v-423bf9ae="" xmlns="http://www.w3.org/2000/svg" viewBox="0 0 723 90" class="iconLeft"><!----><!----><!----><g data-v-423bf9ae="" id="7c8065e8-42ea-4bf8-9d95-a2bdf18b5b44" fill="black" transform="matrix(5.263157630561144,0,0,5.263157630561144,106.89474865835462,-0.5263164532151805)"><path d="M0.59 8.99L0.59 8.99Q0.59 7.25 1.08 6.10L1.08 6.10Q1.37 5.42 2.28 4.63Q3.19 3.84 4.38 3.68L4.38 3.68Q5.10 3.58 6.02 3.58L6.02 3.58Q6.85 3.58 7.84 3.70Q8.83 3.82 9.13 3.99L9.13 3.99L9.30 4.14Q9.30 4.84 9.17 6.61L9.17 6.61L8.68 6.61Q8.30 5.32 8.18 5.00L8.18 5.00Q7.90 4.82 7.08 4.63Q6.27 4.45 5.35 4.45L5.35 4.45Q3.35 4.45 2.67 5.43Q1.99 6.41 1.99 9.04L1.99 9.04Q1.99 13.44 5.99 13.44L5.99 13.44Q7.41 13.44 8.05 12.84L8.05 12.84L8.05 10.89Q8.05 10.72 7.96 10.62Q7.87 10.51 7.68 10.46Q7.49 10.40 7.34 10.37Q7.18 10.35 6.90 10.33L6.90 10.33L6.55 10.30L6.54 9.83Q7.29 9.88 8.72 9.88L8.72 9.88Q9.66 9.88 10.42 9.83L10.42 9.83L10.42 10.35L10.22 10.36Q9.74 10.39 9.55 10.49Q9.37 10.58 9.37 10.79L9.37 10.79L9.37 13.40L9.21 13.55Q6.96 14.35 5.26 14.35L5.26 14.35Q4.21 14.35 3.40 14.08Q2.59 13.82 1.94 13.22Q1.29 12.63 0.94 11.56Q0.59 10.49 0.59 8.99ZM11.16 12.42L11.16 12.42Q11.16 11.93 11.26 11.55Q11.35 11.17 11.58 10.92Q11.80 10.67 12.03 10.50Q12.25 10.33 12.66 10.21Q13.08 10.09 13.38 10.03Q13.68 9.97 14.22 9.86Q14.77 9.76 15.11 9.69L15.11 9.69Q15.11 9.49 15.11 9.20Q15.12 8.90 15.12 8.85L15.12 8.85Q15.12 8.20 14.66 7.92Q14.20 7.64 13.59 7.64L13.59 7.64Q12.89 7.64 12.64 7.97Q12.39 8.30 12.10 9.38L12.10 9.38L11.52 9.32Q11.52 9.28 11.53 9.04Q11.54 8.79 11.57 8.60Q11.61 8.41 11.68 8.12Q11.76 7.83 11.95 7.61Q12.14 7.39 12.42 7.18Q12.70 6.97 13.16 6.86Q13.62 6.75 14.22 6.75L14.22 6.75Q14.84 6.75 15.27 6.89Q15.71 7.03 15.93 7.20Q16.14 7.38 16.26 7.68Q16.38 7.98 16.39 8.16Q16.41 8.34 16.41 8.62L16.41 8.62Q16.41 9.69 16.38 10.90Q16.35 12.11 16.35 12.32L16.35 12.32Q16.35 12.67 16.67 13.17Q16.98 13.66 16.98 13.75L16.98 13.75Q16.98 13.82 16.86 13.86L16.86 13.86Q15.88 14.18 15.78 14.18L15.78 14.18Q15.64 14.18 15.52 13.98Q15.40 13.78 15.30 13.48Q15.20 13.19 15.19 13.17L15.19 13.17Q14.98 13.31 14.67 13.52Q14.36 13.73 14.25 13.81Q14.13 13.89 13.91 14Q13.69 14.11 13.52 14.15Q13.36 14.20 13.10 14.22Q12.85 14.25 12.53 14.25L12.53 14.25Q11.80 14.25 11.48 13.72Q11.16 13.19 11.16 12.42ZM12.42 12.28L12.42 12.28Q12.42 13.31 13.36 13.31L13.36 13.31Q14.18 13.31 15.02 12.61L15.02 12.61Q15.12 12.53 15.12 11.42L15.12 11.42Q15.12 10.65 15.11 10.23L15.11 10.23Q14.85 10.32 14.47 10.44Q14.08 10.57 13.92 10.63Q13.76 10.68 13.50 10.77Q13.23 10.86 13.14 10.92Q13.05 10.98 12.89 11.06Q12.73 11.14 12.68 11.22Q12.64 11.30 12.56 11.40Q12.47 11.51 12.46 11.64Q12.45 11.77 12.43 11.92Q12.42 12.07 12.42 12.28ZM17.71 10.67L17.71 10.67Q17.71 9.25 18.02 8.53L18.02 8.53Q18.24 8.01 19.10 7.40Q19.95 6.79 20.69 6.79L20.69 6.79Q21.34 6.79 21.83 6.94Q22.32 7.10 22.60 7.40Q22.88 7.70 23.05 7.99Q23.23 8.27 23.29 8.70Q23.35 9.13 23.37 9.38Q23.39 9.63 23.39 10.00L23.39 10.00Q23.39 10.12 23.39 10.18L23.39 10.18Q22.95 10.46 21.92 10.46L21.92 10.46L19.05 10.46Q19.05 10.91 19.07 11.15Q19.08 11.40 19.12 11.78Q19.17 12.17 19.29 12.38Q19.40 12.60 19.60 12.82Q19.80 13.05 20.12 13.15Q20.44 13.24 20.87 13.24L20.87 13.24Q22.09 13.24 23.10 12.25L23.10 12.25L23.41 12.57Q23.35 12.63 23.14 12.85Q22.93 13.06 22.86 13.13Q22.79 13.20 22.60 13.39Q22.40 13.58 22.29 13.65Q22.19 13.72 22.00 13.86Q21.81 14 21.68 14.06Q21.55 14.11 21.36 14.19Q21.17 14.27 20.98 14.29Q20.79 14.32 20.59 14.32L20.59 14.32Q19.75 14.32 19.16 13.99Q18.56 13.66 18.26 13.10Q17.96 12.54 17.84 11.95Q17.71 11.35 17.71 10.67ZM19.08 9.83L19.08 9.83L19.88 9.83Q21.74 9.83 22.09 9.58L22.09 9.58Q22.09 9.28 22.04 9.00Q21.98 8.72 21.84 8.41Q21.70 8.09 21.39 7.90Q21.08 7.70 20.64 7.70L20.64 7.70Q19.68 7.70 19.38 8.17Q19.08 8.64 19.08 9.83ZM23.86 7.56L23.83 7.10Q24.37 7.03 24.84 6.93Q25.31 6.83 25.54 6.77Q25.77 6.71 25.83 6.71L25.83 6.71Q26.07 6.71 26.07 6.92L26.07 6.92Q26.07 7.11 26.43 8.55Q26.80 9.98 27.16 11.31L27.16 11.31L27.54 12.64Q29.02 8.72 29.02 7.87L29.02 7.87Q29.02 7.66 28.95 7.57Q28.87 7.49 28.77 7.49Q28.67 7.49 28.59 7.43Q28.52 7.36 28.52 7.21L28.52 7.21Q28.52 6.96 28.99 6.96L28.99 6.96Q29.12 6.96 29.32 6.97Q29.53 6.99 29.60 6.99L29.60 6.99Q29.83 6.99 30.13 6.96Q30.42 6.93 30.52 6.93L30.52 6.93Q30.72 6.93 30.72 7.14L30.72 7.14Q30.72 7.18 30.70 7.22Q30.67 7.25 30.63 7.34Q30.58 7.42 30.50 7.54Q30.42 7.66 30.29 7.92Q30.16 8.18 29.99 8.52Q29.82 8.86 29.57 9.44Q29.32 10.02 29.04 10.74L29.04 10.74Q28.83 11.24 28.64 11.73Q28.45 12.22 28.34 12.53Q28.22 12.84 28.11 13.14Q28 13.44 27.94 13.60Q27.87 13.76 27.80 13.92Q27.72 14.07 27.68 14.13Q27.64 14.20 27.55 14.25Q27.47 14.29 27.40 14.31Q27.33 14.32 27.20 14.32L27.20 14.32Q26.88 14.32 26.75 14.08Q26.61 13.83 26.29 12.74L26.29 12.74Q26.12 12.17 26.01 11.80L26.01 11.80Q25.89 11.40 25.67 10.62Q25.45 9.84 25.32 9.39Q25.19 8.93 25.00 8.46Q24.81 7.99 24.65 7.81L24.65 7.81Q24.60 7.74 24.54 7.70Q24.47 7.66 24.38 7.63Q24.29 7.60 24.24 7.59Q24.19 7.59 24.05 7.58Q23.91 7.57 23.86 7.56L23.86 7.56ZM31.96 4.80L31.96 4.80Q31.96 4.63 32.19 4.21Q32.42 3.79 32.72 3.79L32.72 3.79Q32.93 3.79 33.24 4.05Q33.54 4.31 33.54 4.65Q33.54 4.98 33.26 5.31Q32.97 5.64 32.72 5.64L32.72 5.64Q32.52 5.64 32.24 5.30Q31.96 4.96 31.96 4.80ZM34.38 14.11L31.14 14.11L31.14 13.64Q31.85 13.58 32.03 13.45Q32.21 13.31 32.21 12.89L32.21 12.89L32.21 9.98Q32.21 8.76 32.15 8.29Q32.09 7.81 31.95 7.68Q31.81 7.55 31.42 7.55L31.42 7.55L31.21 7.55L31.18 7.08Q31.78 7.03 32.27 6.94Q32.76 6.86 33.00 6.80Q33.24 6.75 33.28 6.75L33.28 6.75Q33.52 6.75 33.52 6.97L33.52 6.97Q33.52 7.14 33.50 7.89Q33.49 8.64 33.47 10.01Q33.45 11.38 33.45 13.06L33.45 13.06Q33.45 13.34 33.67 13.47Q33.89 13.61 34.38 13.64L34.38 13.64L34.38 14.11ZM35.15 7.74L35.11 7.21Q35.69 7.15 36.27 6.94Q36.85 6.73 37.00 6.73L37.00 6.73Q37.20 6.73 37.27 6.89Q37.34 7.06 37.34 7.48L37.34 7.48L37.34 7.67Q38.95 6.76 39.97 6.76L39.97 6.76Q40.78 6.76 41.13 7.26Q41.48 7.76 41.48 8.40L41.48 8.40L41.48 13.08Q41.48 13.38 41.62 13.50Q41.75 13.61 42.22 13.64L42.22 13.64L42.22 14.11L39.37 14.11L39.37 13.64Q39.90 13.59 40.03 13.47Q40.17 13.34 40.17 13.02L40.17 13.02L40.17 8.58Q40.17 8.23 39.95 8.04Q39.73 7.85 39.50 7.82Q39.27 7.78 38.93 7.78L38.93 7.78Q38.67 7.78 38.16 7.95Q37.66 8.11 37.38 8.30L37.38 8.30Q37.37 9.13 37.34 10.03Q37.31 10.93 37.30 11.49Q37.28 12.04 37.28 12.38L37.28 12.38Q37.28 13.23 37.42 13.42Q37.56 13.61 38.11 13.64L38.11 13.64L38.11 14.11L35.17 14.11L35.17 13.64Q35.46 13.59 35.58 13.55Q35.70 13.51 35.82 13.44Q35.94 13.37 35.97 13.17Q36.01 12.96 36.02 12.73Q36.04 12.50 36.04 12.01L36.04 12.01Q36.04 11.83 35.99 10.04Q35.95 8.26 35.94 8.20L35.94 8.20Q35.92 8.13 35.90 8.07Q35.88 8.01 35.85 7.97Q35.81 7.92 35.79 7.90Q35.77 7.87 35.71 7.84Q35.66 7.81 35.63 7.80Q35.60 7.80 35.52 7.78Q35.45 7.77 35.42 7.76Q35.39 7.76 35.29 7.75Q35.20 7.74 35.15 7.74L35.15 7.74ZM54.15 14.11L46.31 14.11L46.31 13.59Q46.73 13.57 46.96 13.52Q47.19 13.48 47.38 13.34Q47.57 13.20 47.57 12.95L47.57 12.95Q47.63 11.16 47.63 8.33L47.63 8.33Q47.63 6.22 47.57 4.86L47.57 4.86Q47.56 4.55 47.35 4.45Q47.15 4.34 46.62 4.31L46.62 4.31L46.42 4.30L46.42 3.78Q47.18 3.84 48.36 3.84L48.36 3.84Q49.48 3.84 50.11 3.79L50.11 3.79L53.79 3.78L53.96 3.93Q53.93 4.05 53.76 5.21Q53.59 6.37 53.58 6.52L53.58 6.52L53.10 6.52Q52.84 5.10 52.79 5.01L52.79 5.01Q52.71 4.75 52.57 4.65L52.57 4.65Q52.42 4.61 52.05 4.56L52.05 4.56Q51.72 4.52 50.29 4.52L50.29 4.52Q49.66 4.52 49.41 4.61Q49.15 4.70 49.14 5.00L49.14 5.00Q49.11 5.75 49.08 8.33L49.08 8.33Q51.06 8.33 52.53 8.26L52.53 8.26L52.39 9.30L52.15 9.30Q51.90 9.11 51.25 9.04Q50.60 8.96 49.85 8.95Q49.11 8.93 49.07 8.93L49.07 8.93Q49.04 11.00 49.04 12.95L49.04 12.95Q49.04 13.29 49.55 13.39Q50.05 13.50 51.38 13.50L51.38 13.50Q52.64 13.50 52.85 13.33L52.85 13.33Q53.20 13.02 53.56 11.62L53.56 11.62L53.76 10.86L54.28 10.86Q54.24 11.23 54.19 12.56Q54.15 13.89 54.15 14.11L54.15 14.11ZM55.43 12.42L55.43 12.42Q55.43 11.93 55.52 11.55Q55.62 11.17 55.85 10.92Q56.07 10.67 56.29 10.50Q56.52 10.33 56.93 10.21Q57.34 10.09 57.64 10.03Q57.95 9.97 58.49 9.86Q59.04 9.76 59.37 9.69L59.37 9.69Q59.37 9.49 59.38 9.20Q59.39 8.90 59.39 8.85L59.39 8.85Q59.39 8.20 58.93 7.92Q58.46 7.64 57.86 7.64L57.86 7.64Q57.16 7.64 56.91 7.97Q56.66 8.30 56.36 9.38L56.36 9.38L55.79 9.32Q55.79 9.28 55.80 9.04Q55.80 8.79 55.84 8.60Q55.87 8.41 55.95 8.12Q56.03 7.83 56.22 7.61Q56.41 7.39 56.69 7.18Q56.97 6.97 57.43 6.86Q57.89 6.75 58.49 6.75L58.49 6.75Q59.11 6.75 59.54 6.89Q59.98 7.03 60.19 7.20Q60.41 7.38 60.53 7.68Q60.65 7.98 60.66 8.16Q60.68 8.34 60.68 8.62L60.68 8.62Q60.68 9.69 60.65 10.90Q60.62 12.11 60.62 12.32L60.62 12.32Q60.62 12.67 60.94 13.17Q61.25 13.66 61.25 13.75L61.25 13.75Q61.25 13.82 61.12 13.86L61.12 13.86Q60.14 14.18 60.05 14.18L60.05 14.18Q59.91 14.18 59.79 13.98Q59.67 13.78 59.57 13.48Q59.47 13.19 59.46 13.17L59.46 13.17Q59.25 13.31 58.94 13.52Q58.63 13.73 58.51 13.81Q58.39 13.89 58.18 14Q57.96 14.11 57.79 14.15Q57.62 14.20 57.37 14.22Q57.12 14.25 56.80 14.25L56.80 14.25Q56.07 14.25 55.75 13.72Q55.43 13.19 55.43 12.42ZM56.69 12.28L56.69 12.28Q56.69 13.31 57.62 13.31L57.62 13.31Q58.45 13.31 59.29 12.61L59.29 12.61Q59.39 12.53 59.39 11.42L59.39 11.42Q59.39 10.65 59.37 10.23L59.37 10.23Q59.12 10.32 58.74 10.44Q58.35 10.57 58.19 10.63Q58.03 10.68 57.76 10.77Q57.50 10.86 57.41 10.92Q57.32 10.98 57.16 11.06Q56.99 11.14 56.95 11.22Q56.91 11.30 56.83 11.40Q56.74 11.51 56.73 11.64Q56.71 11.77 56.70 11.92Q56.69 12.07 56.69 12.28ZM65.83 14.11L61.91 14.11L61.91 13.64Q62.24 13.59 62.36 13.59Q62.47 13.58 62.64 13.50Q62.82 13.43 62.85 13.36Q62.87 13.30 62.93 13.09Q62.99 12.88 62.99 12.67Q62.99 12.46 62.99 12.03L62.99 12.03L62.99 11.56Q62.99 8.75 62.89 8.26Q62.79 7.77 62.22 7.73L62.22 7.73Q62.13 7.71 62.08 7.71L62.08 7.71L62.05 7.18Q62.61 7.13 63.20 6.92Q63.78 6.71 63.94 6.71L63.94 6.71Q64.12 6.71 64.19 6.87Q64.26 7.03 64.26 7.45L64.26 7.45L64.27 7.98Q65.51 6.79 66.22 6.79L66.22 6.79Q66.74 6.79 66.93 6.92Q67.13 7.04 67.13 7.38L67.13 7.38Q67.13 7.49 66.91 8.89L66.91 8.89L66.40 8.89Q66.33 7.84 65.69 7.84L65.69 7.84Q65.32 7.84 64.80 8.17Q64.27 8.50 64.27 9.04L64.27 9.04Q64.27 9.44 64.27 11.01Q64.26 12.59 64.26 12.84L64.26 12.84Q64.26 13.27 64.51 13.40Q64.76 13.54 65.69 13.66L65.69 13.66Q65.79 13.68 65.83 13.68L65.83 13.68L65.83 14.11ZM68.49 7.84L67.27 7.84L67.27 7.42L68.49 7.18L68.49 5.89Q69.30 5.66 69.52 5.57L69.52 5.57Q69.55 5.56 69.57 5.56L69.57 5.56Q69.78 5.56 69.78 5.77L69.78 5.77Q69.78 5.82 69.76 6.10Q69.75 6.38 69.75 6.62L69.75 6.62L69.75 7.06L71.53 7.06L71.48 7.84L69.75 7.84Q69.75 8.62 69.73 9.77Q69.71 10.92 69.71 11.30L69.71 11.30Q69.71 12.38 69.84 12.85Q69.97 13.33 70.36 13.33L70.36 13.33Q70.70 13.33 71.39 12.92L71.39 12.92L71.68 13.20Q70.60 14.32 69.92 14.32L69.92 14.32Q69.01 14.32 68.73 13.71Q68.45 13.09 68.45 11.48L68.45 11.48Q68.45 11.07 68.47 9.86Q68.49 8.65 68.49 7.84L68.49 7.84ZM72.16 3.75L72.13 3.29Q72.73 3.23 73.22 3.15Q73.71 3.07 73.95 3.01Q74.19 2.95 74.23 2.95L74.23 2.95Q74.47 2.95 74.47 3.16L74.47 3.16Q74.47 3.22 74.46 3.61Q74.45 4.00 74.45 4.07L74.45 4.07L74.44 7.69Q76.06 6.78 77.13 6.78L77.13 6.78Q78.09 6.78 78.40 7.44Q78.71 8.11 78.71 9.62L78.71 9.62Q78.71 10.00 78.69 10.99Q78.67 11.98 78.67 12.59L78.67 12.59Q78.67 13.26 78.77 13.42Q78.88 13.58 79.38 13.64L79.38 13.64L79.38 14.11L76.72 14.11L76.72 13.64Q77.22 13.52 77.32 13.33Q77.42 13.13 77.42 12.28L77.42 12.28L77.42 9.77Q77.42 8.51 77.23 8.16Q77.04 7.80 76.34 7.80L76.34 7.80Q75.92 7.80 75.33 7.98Q74.73 8.16 74.44 8.36L74.44 8.36Q74.40 9.98 74.40 12.42L74.40 12.42Q74.40 13.20 74.51 13.40Q74.63 13.61 75.19 13.64L75.19 13.64L75.19 14.11L72.34 14.11L72.34 13.64Q72.80 13.61 72.98 13.47Q73.16 13.33 73.16 13.05L73.16 13.05Q73.16 11.73 73.17 9.77Q73.18 7.81 73.18 6.50L73.18 6.50Q73.18 4.47 73.04 4.11Q72.90 3.75 72.16 3.75L72.16 3.75ZM79.76 7.56L79.73 7.10Q80.26 7.03 80.73 6.93Q81.20 6.83 81.43 6.77Q81.66 6.71 81.72 6.71L81.72 6.71Q81.97 6.71 81.97 6.92L81.97 6.92Q81.97 7.11 82.33 8.55Q82.70 9.98 83.06 11.31L83.06 11.31L83.44 12.64Q84.91 8.74 84.91 7.90L84.91 7.90Q84.91 7.73 84.80 7.49Q84.69 7.25 84.69 7.18L84.69 7.18Q84.69 6.93 85.72 6.93L85.72 6.93Q85.83 6.93 85.92 6.94Q86.00 6.94 86.06 6.96Q86.11 6.97 86.16 6.98Q86.21 6.99 86.24 7.01Q86.27 7.04 86.29 7.05Q86.31 7.06 86.32 7.09Q86.34 7.13 86.34 7.14Q86.34 7.15 86.34 7.20Q86.35 7.24 86.35 7.25L86.35 7.25Q86.46 7.81 86.82 9.16Q87.18 10.50 87.47 11.56L87.47 11.56L87.77 12.64Q89.25 8.72 89.25 7.87L89.25 7.87Q89.25 7.63 89.17 7.54Q89.10 7.45 89.00 7.46Q88.90 7.46 88.82 7.41Q88.75 7.36 88.75 7.21L88.75 7.21Q88.75 6.96 89.22 6.96L89.22 6.96Q89.35 6.96 89.55 6.97Q89.75 6.99 89.82 6.99L89.82 6.99Q90.06 6.99 90.43 6.96Q90.79 6.93 90.89 6.93L90.89 6.93Q91.08 6.93 91.08 7.14L91.08 7.14Q91.08 7.20 91.03 7.25Q90.99 7.31 90.85 7.50Q90.71 7.69 90.52 8.01Q90.33 8.33 89.99 9.04Q89.66 9.76 89.26 10.74L89.26 10.74Q89.05 11.24 88.86 11.73Q88.68 12.22 88.56 12.53Q88.45 12.84 88.34 13.14Q88.23 13.44 88.16 13.60Q88.10 13.76 88.02 13.92Q87.95 14.07 87.91 14.13Q87.86 14.20 87.78 14.25Q87.70 14.29 87.63 14.31Q87.56 14.32 87.43 14.32L87.43 14.32Q87.11 14.32 86.97 14.08Q86.84 13.83 86.52 12.74L86.52 12.74Q86.35 12.17 86.24 11.80L86.24 11.80Q86.10 11.35 85.85 10.48Q85.61 9.60 85.53 9.31L85.53 9.31L84.92 10.74Q84.74 11.20 84.57 11.65Q84.39 12.10 84.28 12.39Q84.17 12.68 84.07 12.97Q83.97 13.26 83.90 13.43Q83.83 13.61 83.76 13.77Q83.69 13.93 83.64 14.01Q83.58 14.10 83.53 14.17Q83.48 14.24 83.41 14.27Q83.34 14.29 83.27 14.31Q83.20 14.32 83.09 14.32L83.09 14.32Q82.77 14.32 82.64 14.09Q82.52 13.86 82.21 12.82L82.21 12.82Q82.03 12.21 81.90 11.80L81.90 11.80Q81.80 11.45 81.63 10.86Q81.47 10.26 81.35 9.86Q81.23 9.45 81.09 9.00Q80.95 8.55 80.81 8.25Q80.67 7.95 80.54 7.81L80.54 7.81Q80.49 7.74 80.43 7.70Q80.37 7.66 80.28 7.63Q80.19 7.60 80.14 7.59Q80.09 7.59 79.95 7.58Q79.81 7.57 79.76 7.56L79.76 7.56ZM91.50 10.47L91.50 10.47Q91.50 9.24 92.08 8.30L92.08 8.30Q92.46 7.71 93.39 7.23Q94.33 6.75 94.95 6.75L94.95 6.75Q96.19 6.75 97.08 7.55Q97.96 8.34 97.96 10.00L97.96 10.00Q97.96 11.72 97.34 12.66L97.34 12.66Q96.52 13.76 95.73 14.11L95.73 14.11Q95.20 14.35 94.46 14.35L94.46 14.35Q94.05 14.35 93.69 14.27Q93.32 14.20 92.91 13.94Q92.50 13.69 92.20 13.29Q91.90 12.88 91.70 12.16Q91.50 11.44 91.50 10.47ZM92.83 10.36L92.83 10.36Q92.83 12.04 93.41 12.70Q94.00 13.36 95.10 13.36L95.10 13.36Q95.52 13.36 95.72 13.29L95.72 13.29Q96.68 12.91 96.68 10.37L96.68 10.37Q96.68 9.18 96.37 8.63Q96.05 8.08 95.28 7.84L95.28 7.84Q94.89 7.74 94.53 7.74L94.53 7.74Q94.25 7.74 94.10 7.76Q93.95 7.77 93.72 7.84Q93.48 7.91 93.35 8.07Q93.23 8.23 93.09 8.51Q92.95 8.79 92.89 9.26Q92.83 9.73 92.83 10.36ZM102.59 14.11L98.67 14.11L98.67 13.64Q99.01 13.59 99.12 13.59Q99.23 13.58 99.41 13.50Q99.58 13.43 99.61 13.36Q99.64 13.30 99.69 13.09Q99.75 12.88 99.75 12.67Q99.75 12.46 99.75 12.03L99.75 12.03L99.75 11.56Q99.75 8.75 99.65 8.26Q99.55 7.77 98.98 7.73L98.98 7.73Q98.90 7.71 98.84 7.71L98.84 7.71L98.81 7.18Q99.37 7.13 99.96 6.92Q100.55 6.71 100.70 6.71L100.70 6.71Q100.88 6.71 100.95 6.87Q101.02 7.03 101.02 7.45L101.02 7.45L101.04 7.98Q102.27 6.79 102.98 6.79L102.98 6.79Q103.50 6.79 103.70 6.92Q103.89 7.04 103.89 7.38L103.89 7.38Q103.89 7.49 103.67 8.89L103.67 8.89L103.17 8.89Q103.10 7.84 102.45 7.84L102.45 7.84Q102.09 7.84 101.56 8.17Q101.04 8.50 101.04 9.04L101.04 9.04Q101.04 9.44 101.03 11.01Q101.02 12.59 101.02 12.84L101.02 12.84Q101.02 13.27 101.28 13.40Q101.53 13.54 102.45 13.66L102.45 13.66Q102.55 13.68 102.59 13.68L102.59 13.68L102.59 14.11ZM104.24 3.75L104.22 3.29Q104.82 3.23 105.31 3.15Q105.80 3.07 106.03 3.01Q106.26 2.95 106.30 2.95L106.30 2.95Q106.55 2.95 106.55 3.16L106.55 3.16L106.55 3.25L106.55 3.56L106.55 3.77L106.54 9.98Q107.02 9.98 107.88 9.07Q108.75 8.16 108.75 7.69L108.75 7.69Q108.75 7.45 108.46 7.45L108.46 7.45Q108.33 7.45 108.26 7.37Q108.19 7.29 108.19 7.20L108.19 7.20Q108.19 6.99 108.46 6.97L108.46 6.97Q108.93 7.01 109.82 7.01L109.82 7.01Q110.67 7.01 111.15 6.97L111.15 6.97Q111.40 6.97 111.40 7.20L111.40 7.20Q111.40 7.28 111.35 7.34Q111.30 7.41 111.24 7.43Q111.19 7.45 111.12 7.47Q111.05 7.49 111.03 7.49L111.03 7.49Q110.47 7.71 109.70 8.31Q108.93 8.90 108.44 9.39L108.44 9.39L107.95 9.88L111.78 13.69Q111.94 13.86 111.94 13.97L111.94 13.97Q111.94 14.03 111.90 14.06Q111.86 14.10 111.82 14.11L111.82 14.11L111.78 14.11Q110.71 14.11 110.05 14.17L110.05 14.17Q107.94 11.66 107.53 11.22Q107.11 10.78 106.76 10.67L106.76 10.67Q106.61 10.61 106.51 10.57L106.51 10.57Q106.53 10.77 106.53 11.07L106.53 11.07Q106.53 11.52 106.51 12.07Q106.50 12.63 106.50 12.75L106.50 12.75Q106.50 12.89 106.50 12.98Q106.50 13.08 106.52 13.16Q106.54 13.24 106.55 13.29Q106.55 13.34 106.61 13.39Q106.67 13.44 106.69 13.46Q106.71 13.48 106.81 13.51Q106.90 13.54 106.95 13.54Q106.99 13.55 107.13 13.59Q107.28 13.62 107.37 13.64L107.37 13.64L107.37 14.11L104.34 14.11L104.34 13.64Q104.41 13.62 104.58 13.59Q104.75 13.55 104.78 13.54Q104.82 13.52 104.93 13.50Q105.04 13.47 105.06 13.43Q105.08 13.40 105.15 13.34Q105.22 13.29 105.22 13.21Q105.22 13.13 105.26 13.03Q105.29 12.94 105.29 12.79Q105.29 12.64 105.30 12.48Q105.31 12.32 105.31 12.08L105.31 12.08Q105.31 10.70 105.32 8.90Q105.34 7.11 105.34 6.66L105.34 6.66Q105.34 5.89 105.33 5.43Q105.32 4.96 105.25 4.61Q105.18 4.26 105.15 4.11Q105.11 3.96 104.93 3.87Q104.75 3.78 104.66 3.77Q104.57 3.77 104.24 3.75L104.24 3.75ZM112.57 9.10L112.57 9.10Q112.57 8.43 112.81 8.06L112.81 8.06Q113.32 7.25 113.76 7.01Q114.21 6.76 115.09 6.76L115.09 6.76Q115.61 6.76 116.17 7L116.17 7Q116.33 7.06 116.40 7.10Q116.48 7.15 116.56 7.30Q116.65 7.45 116.65 7.69L116.65 7.69Q116.65 7.73 116.63 7.90Q116.62 8.08 116.61 8.39Q116.61 8.69 116.61 9.06L116.61 9.06L116.09 9.06Q116.07 8.88 115.97 8.53Q115.86 8.18 115.74 7.99L115.74 7.99Q115.46 7.59 114.69 7.59L114.69 7.59Q114.31 7.59 114.06 7.69Q113.81 7.80 113.70 7.96Q113.60 8.12 113.55 8.25Q113.51 8.39 113.51 8.51L113.51 8.51Q113.51 8.96 113.86 9.23Q114.21 9.51 114.72 9.67Q115.22 9.84 115.73 10.04Q116.24 10.25 116.59 10.72Q116.94 11.19 116.94 11.90L116.94 11.90Q116.94 12.64 116.73 12.99L116.73 12.99Q116.35 13.59 115.84 14L115.84 14Q115.63 14.15 115.18 14.25Q114.73 14.35 114.51 14.35L114.51 14.35Q113.01 14.35 112.71 13.85L112.71 13.85Q112.60 13.66 112.60 13.37L112.60 13.37Q112.60 12.24 112.66 11.98Q112.73 11.72 112.98 11.72L112.98 11.72Q113.19 11.72 113.25 11.91Q113.30 12.11 113.35 12.45Q113.40 12.80 113.55 13.01L113.55 13.01Q113.88 13.45 114.72 13.45L114.72 13.45Q115.33 13.45 115.68 13.17Q116.03 12.89 116.03 12.40L116.03 12.40Q116.03 11.93 115.67 11.65Q115.32 11.37 114.81 11.21Q114.30 11.05 113.79 10.86Q113.29 10.67 112.93 10.23Q112.57 9.80 112.57 9.10Z"></path></g><!----><g data-v-423bf9ae="" id="b13bee20-ee4b-4ba9-8870-6fceeb73cc61" transform="matrix(1.4516129032258065,0,0,1.4516129032258065,-1.4516129032258078,-1.4516129032258078)" stroke="none" fill="black"><path d="M35 55h2v2h-2zM11 55h22v2H11zM7 55h2v2H7z"></path><path d="M55.827 1l-28 10H9v6h4.656l-2.4 8H4c-1.654 0-3 1.346-3 3v16c0 1.654 1.346 3 3 3h5.382l-1 2H8c-3.86 0-7 3.14-7 7s3.14 7 7 7h28c3.86 0 7-3.14 7-7s-3.14-7-7-7h-.382l-1-2H36c1.654 0 3-1.346 3-3V31.454l7.707-6.747L55 16.414V20l2.848 24.738L53 49.586v6.721l-8 3V63h9.266l7.694-4.396L63 44V1h-7.173zM39 17h2v-4.307l14-5.25v1.741a2.995 2.995 0 00-1.944 2.266l-10.543 7.667L39 20.523V17zm17-4c-.551 0-1-.449-1-1s.449-1 1-1 1 .449 1 1-.449 1-1 1zm-1-9.581v1.888L39.818 11h-6.044L55 3.419zM11 13h28v2H11v-2zM4 27h8.744l3-10H37v22h-2V22c0-1.654-1.346-3-3-3H19.488c-1.335 0-2.49.859-2.874 2.138l-2.574 8.663L14.004 39H3v-3h4v-2H3v-2h4v-2H3v-2c0-.551.449-1 1-1zm29 2H16.364l2.167-7.287a.993.993 0 01.957-.713H32c.551 0 1 .449 1 1v7zm-17 2h17v8H16v-8zm-3 22v-2h2v2h2v-2h2v2h2v-2h2v2h2v-2h2v2h2v-2h2v2h2v-2h2v2h2v-1.899c.637.13 1.229.384 1.753.732l-1.339 1.339 1.414 1.414 1.339-1.339c.348.524.602 1.116.732 1.753H39v2h1.899a4.961 4.961 0 01-.732 1.753l-1.339-1.339-1.414 1.414 1.339 1.339a4.961 4.961 0 01-1.753.732V59h-2v2h-2v-2h-2v2h-2v-2h-2v2h-2v-2h-2v2h-2v-2h-2v2h-2v-2h-2v2h-2v-2h-2v2H9v-2H7v1.899a4.961 4.961 0 01-1.753-.732l1.339-1.339-1.414-1.414-1.339 1.339A4.961 4.961 0 013.101 57H5v-2H3.101c.13-.637.384-1.229.732-1.753l1.339 1.339 1.414-1.414-1.339-1.339A4.961 4.961 0 017 51.101V53h2v-2h2v2h2zm20.382-4H10.618l1-2h20.764l1 2zM36 45H4c-.551 0-1-.449-1-1v-3h34v3c0 .551-.449 1-1 1zm9.341-21.752L39 28.796v-6.119l4.372-1.749 10.107-7.316c.193.3.439.559.723.773l-8.861 8.863zM57 14.816c1.161-.414 2-1.514 2-2.816s-.839-2.402-2-2.816V3h4l.002 40.929-.005.071h-1.221L57 19.942v-5.126zM47 60.693l6-2.25V61h-6v-.307zm8-.416v-9.863L59.414 46h1.44l-.814 11.396L55 60.277z"></path><path d="M27 33h4v2h-4z"></path></g><!----></svg>