<!DOCTYPE svg PUBLIC "-//W3C//DTD SVG 1.1//EN" "http://www.w3.org/Graphics/SVG/1.1/DTD/svg11.dtd">
<!-- Uploaded to: SVG Repo, www.svgrepo.com, Transformed by: SVG Repo Mixer Tools -->
<svg fill="#ffffff" height="220px" width="220px" version="1.1" id="Capa_1" xmlns="http://www.w3.org/2000/svg" xmlns:xlink="http://www.w3.org/1999/xlink" viewBox="-100.6 -100.6 704.20 704.20" xml:space="preserve" stroke="#ffffff" stroke-width="2.012">
<g id="SVGRepo_bgCarrier" stroke-width="0" transform="translate(0,0), scale(1)">
<rect x="-100.6" y="-100.6" width="704.20" height="704.20" rx="352.1" fill="#13b6ec" strokewidth="0"/>
</g>
<g id="SVGRepo_tracerCarrier" stroke-linecap="round" stroke-linejoin="round" stroke="#CCCCCC" stroke-width="2.012"/>
<g id="SVGRepo_iconCarrier"> <g> <path d="M32,443.5c0,12.958,10.542,23.5,23.5,23.5S79,456.458,79,443.5c0-8.359-4.497-16.155-11.735-20.346 C63.703,421.091,59.634,420,55.5,420C42.542,420,32,430.542,32,443.5z M64,443.5c0,4.687-3.813,8.5-8.5,8.5s-8.5-3.813-8.5-8.5 s3.813-8.5,8.5-8.5c1.498,0,2.966,0.392,4.248,1.135C62.371,437.653,64,440.476,64,443.5z"/> <path d="M119.5,467c12.958,0,23.5-10.542,23.5-23.5c0-8.359-4.497-16.155-11.735-20.346c-3.563-2.063-7.631-3.154-11.765-3.154 c-12.958,0-23.5,10.542-23.5,23.5S106.542,467,119.5,467z M119.5,435c1.498,0,2.966,0.392,4.248,1.135 c2.623,1.519,4.252,4.341,4.252,7.365c0,4.687-3.813,8.5-8.5,8.5s-8.5-3.813-8.5-8.5S114.813,435,119.5,435z"/> <path d="M183.5,467c12.958,0,23.5-10.542,23.5-23.5c0-8.359-4.497-16.155-11.735-20.346c-3.563-2.063-7.631-3.154-11.765-3.154 c-12.958,0-23.5,10.542-23.5,23.5S170.542,467,183.5,467z M183.5,435c1.498,0,2.966,0.392,4.248,1.135 c2.623,1.519,4.252,4.341,4.252,7.365c0,4.687-3.813,8.5-8.5,8.5s-8.5-3.813-8.5-8.5S178.813,435,183.5,435z"/> <path d="M247.5,467c12.958,0,23.5-10.542,23.5-23.5c0-8.359-4.497-16.155-11.735-20.346c-3.563-2.063-7.631-3.154-11.765-3.154 c-12.958,0-23.5,10.542-23.5,23.5S234.542,467,247.5,467z M247.5,435c1.498,0,2.966,0.392,4.248,1.135 c2.623,1.519,4.252,4.341,4.252,7.365c0,4.687-3.813,8.5-8.5,8.5s-8.5-3.813-8.5-8.5S242.813,435,247.5,435z"/> <path d="M63.5,315h8c4.142,0,7.5-3.358,7.5-7.5s-3.358-7.5-7.5-7.5h-8c-4.142,0-7.5,3.358-7.5,7.5S59.358,315,63.5,315z"/> <path d="M63.5,339h8c4.142,0,7.5-3.358,7.5-7.5s-3.358-7.5-7.5-7.5h-8c-4.142,0-7.5,3.358-7.5,7.5S59.358,339,63.5,339z"/> <path d="M499.818,263.715L372.285,22.73C367.376,11.708,356.324,4,343.5,4c-10.74,0-20.238,5.407-25.926,13.638 c-0.013,0.017-0.027,0.031-0.04,0.048L195.498,180.337c-1.686-0.219-3.396-0.337-5.124-0.337H135.5c-21.78,0-39.5,17.72-39.5,39.5 V268H47.5C34.542,268,24,278.542,24,291.5v56c0,12.958,10.542,23.5,23.5,23.5h56h8.5v17H55.5C24.897,388,0,412.897,0,443.5 S24.897,499,55.5,499h192c30.603,0,55.5-24.897,55.5-55.5S278.103,388,247.5,388H191v-17h64.5c4.142,0,7.5-3.358,7.5-7.5v-24.499 l8.501-0.001c0.101,0,0.199-0.011,0.299-0.015c0.156-0.006,0.313-0.008,0.467-0.024c0.079-0.008,0.154-0.025,0.232-0.035 c0.171-0.023,0.344-0.044,0.511-0.078c0.136-0.028,0.268-0.068,0.401-0.103c0.106-0.028,0.214-0.05,0.318-0.082 c0.082-0.026,0.16-0.06,0.241-0.088c0.151-0.052,0.302-0.102,0.448-0.164c0.017-0.007,0.033-0.017,0.051-0.024 c0.43-0.186,0.84-0.408,1.223-0.667c0.096-0.065,0.186-0.139,0.279-0.208c0.1-0.074,0.203-0.144,0.299-0.223 c0.102-0.084,0.196-0.177,0.293-0.266c0.08-0.073,0.163-0.142,0.24-0.218c0.07-0.07,0.132-0.146,0.199-0.219 c0.096-0.104,0.195-0.205,0.285-0.314c0.033-0.04,0.061-0.084,0.093-0.125c0.117-0.148,0.233-0.296,0.338-0.453 c0.048-0.071,0.088-0.147,0.134-0.22c0.083-0.131,0.167-0.261,0.242-0.398c0.42-0.773,0.7-1.632,0.826-2.54 c0.047-0.339,0.08-0.683,0.08-1.035v-28.624c0-14.163-4.152-27.877-12.009-39.662l-11.886-17.828l82.396-138.333L459.196,287.31 c2.842,4.868,7.382,8.624,12.804,10.456v12.384l-2.188-5.445c-0.742-1.846-2.186-3.321-4.015-4.102 c-1.83-0.782-3.895-0.803-5.74-0.062l-102.496,41.175l-17.658-14.558c-3.196-2.635-7.923-2.18-10.558,1.016 c-2.635,3.196-2.18,7.923,1.016,10.558l55.358,45.638c10.114,8.338,22.63,12.681,35.303,12.681c6.974,0,13.997-1.316,20.691-4.005 l25.523-10.253c11.004-4.421,18.147-14.392,19.514-25.403c0.157-0.605,0.25-1.236,0.25-1.89v-57.734c9.29-3.138,16-11.93,16-22.266 C503,271.207,501.837,267.182,499.818,263.715z M96,356H47.5c-4.687,0-8.5-3.813-8.5-8.5v-56c0-4.687,3.813-8.5,8.5-8.5H96V356z M461.644,368.874l-25.523,10.253c-13.76,5.529-29.417,3.103-40.86-6.332l-24.516-20.211l87.944-35.329l12.115,30.157 C474.196,355.855,470.086,365.483,461.644,368.874z M343.5,19c6.173,0,11.557,3.413,14.386,8.445 c0.112,0.297,0.236,0.591,0.388,0.879l0.483,0.913C359.554,31.17,360,33.283,360,35.5c0,3.118-0.885,6.026-2.394,8.516 c-0.048,0.074-0.1,0.143-0.146,0.219l-0.314,0.527C354.174,49.127,349.167,52,343.5,52c-9.098,0-16.5-7.402-16.5-16.5 S334.402,19,343.5,19z M247.5,403c22.332,0,40.5,18.168,40.5,40.5S269.832,484,247.5,484h-192C33.168,484,15,465.832,15,443.5 S33.168,403,55.5,403H247.5z M127,388v-17h49v17H127z M248,356H111v-80.461c0-0.013,0.002-0.025,0.002-0.039 S111,275.474,111,275.461V219.5c0-10.894,7.149-20.146,17-23.321v107.729c0,8.924,5.269,17.032,13.423,20.656 C162.975,334.143,185.86,339,209.445,339H248V356z M264,302.876V324h-54.555c-8.94,0-17.767-0.778-26.445-2.302V219.5 c0-4.142-3.358-7.5-7.5-7.5s-7.5,3.358-7.5,7.5v98.764c-6.953-1.969-13.791-4.432-20.484-7.407 c-2.743-1.219-4.516-3.947-4.516-6.949V195h47.375c8.21,0,15.831,4.079,20.385,10.91l43.751,65.625 C260.719,280.847,264,291.685,264,302.876z M245.885,231.556l-22.645-33.967c-3.365-5.048-7.777-9.15-12.835-12.127L314.221,47.095 C318.849,58.741,330.225,67,343.5,67c0.136,0,0.271-0.009,0.406-0.01L245.885,231.556z M460.243,262.054L345.985,92.812 l23.983-40.264c0.208-0.322,0.413-0.646,0.61-0.976l106.159,200.597C469.924,252.97,463.997,256.695,460.243,262.054z M479.5,284 c-4.687,0-8.5-3.813-8.5-8.5s3.813-8.5,8.5-8.5s8.5,3.813,8.5,8.5S484.187,284,479.5,284z"/> </g> </g>
</svg>